# xmcd
#
# Track frame offsets: 
#        150
#        23536
#        48247
#        65903
#        86214
#        106617
#        125766
#        145971
#        165208
#        180187
#        203699
#        217361
#
# Disc length: 3188 seconds
#
# Revision: 0
# Processed by: cddbd v1.5.2PL0 Copyright (c) Steve Scherf et al.
# Submitted via: ExactAudioCopy v1.0b6
#
DISCID=a40c720c
DTITLE=Earl Thomas - Studios
DYEAR=1900
DGENRE=Blues
TTITLE0=Sulky Clowns
TTITLE1=See It My Way
TTITLE2=No Rest For The Wicked
TTITLE3=I Won't Be Around
TTITLE4=Sweet Like Sugar
TTITLE5=Take It Like A Man
TTITLE6=I'll Be Here
TTITLE7=Lost Alone
TTITLE8=(C'mon) Good Times Roll
TTITLE9=Heart Like A Locomotive
TTITLE10=Not Broken Hearted
TTITLE11=Stronger Than My Flame
EXTD=
EXTT0=
EXTT1=
EXTT2=
EXTT3=
EXTT4=
EXTT5=
EXTT6=
EXTT7=
EXTT8=
EXTT9=
EXTT10=
EXTT11=
PLAYORDER=
